<?xml version="1.0" standalone="no"?>
<!DOCTYPE svg PUBLIC "-//W3C//DTD SVG 20010904//EN"
 "http://www.w3.org/TR/2001/REC-SVG-20010904/DTD/svg10.dtd">
<svg version="1.0" xmlns="http://www.w3.org/2000/svg"
 width="400.000000pt" height="400.000000pt" viewBox="0 0 400.000000 400.000000"
 preserveAspectRatio="xMidYMid meet">

<g transform="translate(0.000000,400.000000) scale(0.100000,-0.100000)"
fill="#ffffff" stroke="none">
<path d="M1835 3850 c-300 -29 -598 -132 -840 -290 -357 -234 -627 -583 -756
-975 -63 -189 -90 -370 -90 -588 0 -146 2 -173 22 -312 23 -155 105 -393 191
-555 182 -344 479 -628 833 -800 264 -128 504 -183 805 -183 301 0 545 55 806
183 507 247 873 703 1002 1250 66 278 61 616 -14 898 -187 703 -795 1252
-1505 1356 -134 20 -340 27 -454 16z m465 -81 c153 -25 352 -89 498 -162 774
-384 1164 -1262 930 -2096 -159 -569 -596 -1026 -1160 -1215 -574 -192 -1215
-78 -1686 299 -395 318 -639 780 -671 1276 -16 250 11 470 89 701 150 449 472
820 897 1032 347 173 711 227 1103 165z"/>
<path d="M1810 3733 c-95 -11 -290 -57 -388 -92 -581 -207 -1003 -692 -1128
-1295 -31 -153 -43 -397 -25 -542 139 -1122 1255 -1817 2318 -1443 348 123
652 360 863 675 344 513 385 1184 108 1738 -260 520 -739 865 -1319 950 -98
15 -335 19 -429 9z m418 -580 c6 -10 76 -223 157 -473 81 -250 150 -458 154
-461 3 -4 65 28 136 72 72 43 135 78 141 79 10 0 104 -240 104 -267 0 -6 -65
-50 -144 -97 l-145 -86 21 -62 c12 -35 22 -64 23 -65 2 -3 264 153 282 169 10
8 18 -2 38 -46 14 -31 25 -62 25 -69 0 -7 -68 -46 -151 -87 -83 -41 -152 -78
-155 -81 -2 -4 19 -73 46 -155 28 -81 50 -150 50 -151 0 -2 -76 -3 -169 -3
l-168 0 -18 63 c-34 122 -11 119 -205 22 l-170 -85 -12 25 c-6 14 -9 27 -7 28
2 2 74 45 159 95 85 51 160 96 167 100 9 6 7 24 -8 74 l-21 67 -61 -38 c-34
-21 -118 -71 -186 -111 -145 -86 -115 -100 -240 105 l-83 137 -55 -188 c-29
-104 -60 -213 -69 -241 l-15 -53 -164 0 c-91 0 -165 3 -165 7 0 4 25 70 54
147 100 258 197 510 218 566 l20 55 -163 265 c-317 518 -358 585 -364 601 -5
13 20 32 108 83 63 36 118 66 123 66 5 0 62 -84 127 -187 258 -413 292 -466
302 -463 6 1 65 145 132 319 68 174 125 322 127 329 4 8 36 12 110 12 90 0
107 -3 114 -17z m-418 -2138 l0 -165 -25 0 -25 0 0 159 c0 158 0 160 23 164
12 2 23 5 25 6 1 0 2 -73 2 -164z m-570 153 c0 -2 11 -68 25 -148 31 -181 31
-172 -2 -168 -19 2 -29 10 -33 27 -3 15 -14 25 -29 28 -18 2 -25 -3 -34 -27
-8 -22 -18 -30 -35 -30 -20 0 -23 4 -19 23 3 12 15 84 28 160 l22 137 39 0
c21 0 38 -1 38 -2z m155 -55 c31 -111 33 -113 34 -25 1 81 1 82 26 82 l25 0 0
-160 0 -160 -29 0 c-30 0 -32 6 -80 180 -7 28 -9 15 -10 -72 l-1 -108 -25 0
-25 0 0 160 0 160 35 0 c33 0 35 -2 50 -57z m175 -103 l0 -160 -30 0 -30 0 0
160 0 160 30 0 30 0 0 -160z m88 25 l-5 -135 44 0 c39 0 43 -2 43 -25 0 -24
-2 -25 -70 -25 l-70 0 0 160 0 160 31 0 32 0 -5 -135z m324 118 c20 -18 25
-82 8 -114 -8 -14 -7 -25 5 -41 26 -38 15 -117 -19 -140 -6 -4 -38 -8 -71 -8
l-60 0 0 160 0 160 59 0 c41 0 65 -5 78 -17z m192 -5 c20 -28 21 -97 1 -125
-13 -18 -13 -22 0 -33 10 -9 15 -32 15 -76 0 -61 -1 -64 -25 -64 -20 0 -25 6
-31 34 -3 19 -4 38 -1 43 8 14 -12 53 -28 53 -12 0 -15 -13 -15 -65 l0 -65
-30 0 -30 0 0 160 0 160 64 0 c56 0 67 -3 80 -22z m106 -138 l0 -160 -30 0
-30 0 0 160 0 160 30 0 30 0 0 -160z m169 18 c13 -79 25 -151 27 -160 4 -14
-1 -18 -25 -18 -26 0 -31 4 -31 25 0 14 -4 26 -10 26 -49 6 -55 3 -58 -24 -3
-21 -9 -27 -28 -27 -29 0 -29 -9 -4 148 29 184 24 172 69 172 l39 0 21 -142z
m251 117 c0 -20 -5 -25 -25 -25 l-25 0 0 -135 0 -135 -25 0 -25 0 0 134 0 135
-27 3 c-20 2 -29 9 -31 26 -3 21 -1 22 77 22 80 0 81 0 81 -25z m80 -77 c7
-57 16 -109 19 -116 4 -7 13 33 20 89 15 124 17 129 48 129 22 0 24 -3 19 -27
-3 -16 -13 -73 -21 -128 -27 -182 -21 -165 -65 -165 -44 0 -40 -10 -65 155 -8
55 -17 115 -20 133 -6 30 -4 32 23 32 l29 0 13 -102z m-230 -193 c0 -20 -5
-25 -25 -25 -20 0 -25 5 -25 25 0 20 5 25 25 25 20 0 25 -5 25 -25z"/>
<path d="M1981 2517 c-41 -139 -74 -259 -75 -268 0 -16 175 -299 186 -299 3 0
45 23 93 52 61 36 85 56 82 67 -2 9 -30 104 -62 211 -32 107 -77 259 -100 337
-23 79 -44 145 -46 147 -3 3 -38 -108 -78 -247z"/>
<path d="M1190 1055 c0 -17 -3 -47 -6 -67 -6 -34 -4 -38 15 -38 20 0 21 3 15
58 -7 62 -24 95 -24 47z"/>
<path d="M1900 1080 c0 -33 3 -40 20 -40 13 0 22 9 26 25 8 34 -1 55 -26 55
-17 0 -20 -6 -20 -40z"/>
<path d="M1900 946 c0 -43 2 -46 26 -46 23 0 25 3 22 43 -2 35 -7 43 -25 45
-21 3 -23 -1 -23 -42z"/>
<path d="M2090 1075 c0 -38 3 -45 20 -45 17 0 20 7 20 45 0 38 -3 45 -20 45
-17 0 -20 -7 -20 -45z"/>
<path d="M2375 1033 c-9 -78 -9 -77 9 -81 18 -4 20 34 7 103 l-8 40 -8 -62z"/>
</g>
</svg>
